<svg xmlns="http://www.w3.org/2000/svg" xmlns:xlink="http://www.w3.org/1999/xlink" width="500" zoomAndPan="magnify" viewBox="0 0 375 374.999991" height="500" preserveAspectRatio="xMidYMid meet" version="1.0"><defs><g/><clipPath id="b5f7a07d8f"><path d="M 126.765625 77 L 169 77 L 169 139 L 126.765625 139 Z M 126.765625 77 " clip-rule="nonzero"/></clipPath><clipPath id="b310893b6d"><path d="M 203 77 L 245.496094 77 L 245.496094 139 L 203 139 Z M 203 77 " clip-rule="nonzero"/></clipPath><clipPath id="f0ac77c2f1"><path d="M 165 62.171875 L 207 62.171875 L 207 154.519531 L 165 154.519531 Z M 165 62.171875 " clip-rule="nonzero"/></clipPath></defs><path fill="#ff3131" d="M 164.109375 137.089844 C 163.453125 137.089844 162.808594 136.871094 162.296875 136.460938 L 129.195312 110.417969 C 128.480469 109.859375 128.074219 109.019531 128.074219 108.117188 C 128.074219 107.210938 128.480469 106.371094 129.191406 105.808594 L 162.296875 79.769531 C 162.808594 79.359375 163.453125 79.140625 164.109375 79.140625 C 165.011719 79.140625 165.855469 79.546875 166.410156 80.257812 C 166.894531 80.875 167.113281 81.644531 167.019531 82.417969 C 166.929688 83.195312 166.535156 83.890625 165.921875 84.375 L 135.753906 108.117188 L 165.921875 131.851562 C 166.535156 132.339844 166.929688 133.035156 167.019531 133.808594 C 167.113281 134.589844 166.894531 135.351562 166.410156 135.972656 C 165.855469 136.679688 165.011719 137.089844 164.109375 137.089844 " fill-opacity="1" fill-rule="nonzero"/><g clip-path="url(#b5f7a07d8f)"><path fill="#ff5757" d="M 164.109375 77.894531 C 163.175781 77.894531 162.261719 78.207031 161.527344 78.785156 L 128.421875 104.828125 C 127.40625 105.632812 126.824219 106.828125 126.824219 108.117188 C 126.824219 109.402344 127.410156 110.601562 128.421875 111.402344 L 161.527344 137.445312 C 162.253906 138.019531 163.175781 138.339844 164.109375 138.339844 C 165.402344 138.339844 166.601562 137.753906 167.394531 136.742188 C 168.089844 135.867188 168.394531 134.773438 168.261719 133.664062 C 168.128906 132.554688 167.574219 131.5625 166.695312 130.871094 L 137.769531 108.117188 L 166.695312 85.359375 C 167.574219 84.664062 168.128906 83.675781 168.261719 82.566406 C 168.394531 81.457031 168.089844 80.363281 167.394531 79.484375 C 166.601562 78.472656 165.398438 77.894531 164.109375 77.894531 Z M 164.109375 80.390625 C 164.609375 80.390625 165.101562 80.609375 165.429688 81.027344 C 166.011719 81.761719 165.882812 82.820312 165.152344 83.394531 L 133.730469 108.117188 L 165.152344 132.835938 C 165.882812 133.410156 166.011719 134.46875 165.429688 135.199219 C 165.101562 135.621094 164.609375 135.84375 164.109375 135.84375 C 163.742188 135.84375 163.378906 135.726562 163.070312 135.480469 L 129.964844 109.4375 C 129.5625 109.121094 129.324219 108.628906 129.324219 108.117188 C 129.324219 107.597656 129.5625 107.113281 129.964844 106.792969 L 163.070312 80.75 C 163.375 80.503906 163.742188 80.390625 164.109375 80.390625 " fill-opacity="1" fill-rule="nonzero"/></g><path fill="#ff3131" d="M 207.785156 137.089844 C 206.878906 137.089844 206.042969 136.679688 205.476562 135.972656 C 204.480469 134.703125 204.699219 132.855469 205.972656 131.851562 L 236.144531 108.117188 L 205.972656 84.375 C 204.699219 83.375 204.480469 81.527344 205.476562 80.257812 C 206.042969 79.546875 206.878906 79.140625 207.785156 79.140625 C 208.4375 79.140625 209.082031 79.359375 209.597656 79.769531 L 242.703125 105.808594 C 243.410156 106.371094 243.816406 107.210938 243.816406 108.117188 C 243.816406 109.019531 243.410156 109.859375 242.695312 110.417969 L 209.597656 136.460938 C 209.082031 136.871094 208.4375 137.089844 207.785156 137.089844 " fill-opacity="1" fill-rule="nonzero"/><g clip-path="url(#b310893b6d)"><path fill="#ff5757" d="M 207.785156 77.894531 C 206.496094 77.894531 205.296875 78.472656 204.5 79.484375 C 203.070312 81.296875 203.386719 83.929688 205.199219 85.359375 L 234.121094 108.117188 L 205.199219 130.871094 C 203.386719 132.296875 203.070312 134.933594 204.5 136.742188 C 205.296875 137.753906 206.496094 138.339844 207.785156 138.339844 C 208.71875 138.339844 209.632812 138.019531 210.367188 137.445312 L 243.472656 111.402344 C 244.484375 110.601562 245.0625 109.402344 245.0625 108.117188 C 245.0625 106.828125 244.484375 105.632812 243.476562 104.828125 L 210.371094 78.785156 C 209.636719 78.207031 208.71875 77.894531 207.785156 77.894531 Z M 207.785156 80.390625 C 208.148438 80.390625 208.519531 80.503906 208.824219 80.75 L 241.929688 106.792969 C 242.332031 107.113281 242.566406 107.597656 242.566406 108.117188 C 242.566406 108.628906 242.332031 109.121094 241.929688 109.4375 L 208.824219 135.480469 C 208.519531 135.726562 208.148438 135.84375 207.785156 135.84375 C 207.285156 135.84375 206.789062 135.621094 206.460938 135.199219 C 205.886719 134.46875 206.011719 133.410156 206.742188 132.835938 L 238.164062 108.117188 L 206.742188 83.394531 C 206.011719 82.820312 205.886719 81.761719 206.460938 81.027344 C 206.789062 80.609375 207.289062 80.390625 207.785156 80.390625 " fill-opacity="1" fill-rule="nonzero"/></g><path fill="#ff3131" d="M 169.496094 152.804688 C 169.132812 152.804688 168.777344 152.734375 168.4375 152.605469 C 167.707031 152.320312 167.128906 151.773438 166.816406 151.058594 C 166.496094 150.339844 166.480469 149.546875 166.761719 148.816406 L 199.089844 65.296875 C 199.523438 64.179688 200.625 63.425781 201.820312 63.425781 C 202.1875 63.425781 202.546875 63.496094 202.886719 63.625 C 204.390625 64.210938 205.144531 65.914062 204.558594 67.421875 L 172.234375 150.933594 C 171.796875 152.050781 170.695312 152.804688 169.496094 152.804688 " fill-opacity="1" fill-rule="nonzero"/><g clip-path="url(#f0ac77c2f1)"><path fill="#ff5757" d="M 201.820312 62.175781 C 200.109375 62.175781 198.539062 63.253906 197.925781 64.847656 L 165.597656 148.363281 C 165.195312 149.40625 165.222656 150.539062 165.671875 151.5625 C 166.125 152.582031 166.945312 153.371094 167.988281 153.769531 C 168.472656 153.960938 168.976562 154.054688 169.496094 154.054688 C 171.210938 154.054688 172.777344 152.980469 173.398438 151.382812 L 205.722656 67.871094 C 206.554688 65.71875 205.484375 63.289062 203.332031 62.460938 C 202.851562 62.273438 202.339844 62.175781 201.820312 62.175781 Z M 201.820312 64.671875 C 202.027344 64.671875 202.230469 64.714844 202.429688 64.789062 C 203.300781 65.125 203.730469 66.097656 203.394531 66.964844 L 171.066406 150.480469 C 170.808594 151.148438 170.171875 151.558594 169.496094 151.558594 C 169.292969 151.558594 169.085938 151.523438 168.886719 151.441406 C 168.019531 151.109375 167.589844 150.128906 167.929688 149.265625 L 200.253906 65.753906 C 200.511719 65.082031 201.148438 64.671875 201.820312 64.671875 " fill-opacity="1" fill-rule="nonzero"/></g><g fill="#ffffff" fill-opacity="1"><g transform="translate(58.629136, 243.427935)"><g><path d="M 47.519531 0 L 47.519531 -11.902344 L 17.164062 -11.902344 L 17.164062 -65.65625 L 4.371094 -65.65625 L 4.371094 0 Z M 47.519531 0 "/></g></g></g><g fill="#ffffff" fill-opacity="1"><g transform="translate(104.683214, 243.427935)"><g><path d="M 37.726562 1.050781 C 58.046875 1.050781 72.050781 -13.925781 72.050781 -32.867188 L 72.050781 -32.949219 C 72.050781 -52.054688 58.125 -66.789062 37.726562 -66.789062 C 17.242188 -66.789062 3.320312 -52.054688 3.320312 -32.949219 L 3.320312 -32.867188 C 3.320312 -13.925781 17.324219 1.050781 37.726562 1.050781 Z M 37.726562 -10.847656 C 25.746094 -10.847656 16.273438 -19.589844 16.273438 -32.867188 L 16.273438 -32.949219 C 16.273438 -46.308594 25.746094 -54.886719 37.726562 -54.886719 C 49.625 -54.886719 59.097656 -46.308594 59.097656 -32.949219 L 59.097656 -32.867188 C 59.097656 -19.589844 49.625 -10.847656 37.726562 -10.847656 Z M 37.726562 -10.847656 "/></g></g></g><g fill="#ffffff" fill-opacity="1"><g transform="translate(176.961819, 243.427935)"><g><path d="M 36.996094 -25.90625 L 50.4375 -25.90625 L 50.4375 -14.003906 C 46.710938 -11.902344 42.503906 -10.847656 38.050781 -10.847656 C 26.230469 -10.847656 16.597656 -17.648438 16.597656 -32.789062 L 16.597656 -32.949219 C 16.597656 -48.167969 26.230469 -54.886719 38.050781 -54.886719 C 45.09375 -54.886719 51.570312 -52.863281 56.425781 -49.382812 L 61.363281 -60.472656 C 53.429688 -64.847656 46.144531 -66.789062 37.726562 -66.789062 C 17.324219 -66.789062 3.320312 -53.027344 3.320312 -32.949219 L 3.320312 -32.789062 C 3.320312 -12.792969 17.324219 1.050781 37.726562 1.050781 C 45.984375 1.050781 56.101562 -1.296875 62.5 -5.503906 L 62.5 -36.105469 L 36.996094 -36.105469 Z M 36.996094 -25.90625 "/></g></g></g><g fill="#ffffff" fill-opacity="1"><g transform="translate(240.984573, 243.427935)"><g><path d="M 37.726562 1.050781 C 58.046875 1.050781 72.050781 -13.925781 72.050781 -32.867188 L 72.050781 -32.949219 C 72.050781 -52.054688 58.125 -66.789062 37.726562 -66.789062 C 17.242188 -66.789062 3.320312 -52.054688 3.320312 -32.949219 L 3.320312 -32.867188 C 3.320312 -13.925781 17.324219 1.050781 37.726562 1.050781 Z M 37.726562 -10.847656 C 25.746094 -10.847656 16.273438 -19.589844 16.273438 -32.867188 L 16.273438 -32.949219 C 16.273438 -46.308594 25.746094 -54.886719 37.726562 -54.886719 C 49.625 -54.886719 59.097656 -46.308594 59.097656 -32.949219 L 59.097656 -32.867188 C 59.097656 -19.589844 49.625 -10.847656 37.726562 -10.847656 Z M 37.726562 -10.847656 "/></g></g></g><g fill="#ff3131" fill-opacity="1"><g transform="translate(71.675871, 302.035231)"><g><path d="M 30.566406 0 L 19.097656 -30.492188 L 11.917969 -30.492188 L 0.527344 0 L 6.617188 0 L 9.363281 -7.746094 L 21.695312 -7.746094 L 24.4375 0 Z M 19.851562 -12.820312 L 11.167969 -12.820312 L 15.488281 -24.703125 Z M 19.851562 -12.820312 "/></g></g></g><g fill="#ff3131" fill-opacity="1"><g transform="translate(101.33691, 302.035231)"><g><path d="M 22.070312 0 L 22.070312 -5.527344 L 7.96875 -5.527344 L 7.96875 -30.492188 L 2.03125 -30.492188 L 2.03125 0 Z M 22.070312 0 "/></g></g></g><g fill="#ff3131" fill-opacity="1"><g transform="translate(122.727351, 302.035231)"><g><path d="M 22.558594 0 L 22.558594 -5.527344 L 7.933594 -5.527344 L 7.933594 -12.972656 L 21.167969 -12.972656 L 21.167969 -18.195312 L 7.933594 -18.195312 L 7.933594 -24.964844 L 22.484375 -24.964844 L 22.484375 -30.492188 L 2.066406 -30.492188 L 2.066406 0 Z M 22.558594 0 "/></g></g></g><g fill="#ff3131" fill-opacity="1"><g transform="translate(145.358378, 302.035231)"><g><path d="M 30.566406 0 L 19.097656 -30.492188 L 11.917969 -30.492188 L 0.527344 0 L 6.617188 0 L 9.363281 -7.746094 L 21.695312 -7.746094 L 24.4375 0 Z M 19.851562 -12.820312 L 11.167969 -12.820312 L 15.488281 -24.703125 Z M 19.851562 -12.820312 "/></g></g></g><g fill="#ff3131" fill-opacity="1"><g transform="translate(175.019418, 302.035231)"><g><path d="M 16.355469 0 L 16.355469 -24.964844 L 26.015625 -24.964844 L 26.015625 -30.492188 L 0.75 -30.492188 L 0.75 -24.964844 L 10.453125 -24.964844 L 10.453125 0 Z M 16.355469 0 "/></g></g></g><g fill="#ff3131" fill-opacity="1"><g transform="translate(200.357183, 302.035231)"><g><path d="M 19.289062 -32.710938 L 25.492188 -38.386719 L 18.085938 -38.386719 L 15.078125 -32.710938 Z M 17.519531 0.488281 C 26.957031 0.488281 33.460938 -6.464844 33.460938 -15.265625 L 33.460938 -15.300781 C 33.460938 -24.175781 26.996094 -31.019531 17.519531 -31.019531 C 8.007812 -31.019531 1.542969 -24.175781 1.542969 -15.300781 L 1.542969 -15.265625 C 1.542969 -6.464844 8.046875 0.488281 17.519531 0.488281 Z M 17.519531 -5.039062 C 11.957031 -5.039062 7.558594 -9.097656 7.558594 -15.265625 L 7.558594 -15.300781 C 7.558594 -21.503906 11.957031 -25.492188 17.519531 -25.492188 C 23.046875 -25.492188 27.445312 -21.503906 27.445312 -15.300781 L 27.445312 -15.265625 C 27.445312 -9.097656 23.046875 -5.039062 17.519531 -5.039062 Z M 17.519531 -5.039062 "/></g></g></g><g fill="#ff3131" fill-opacity="1"><g transform="translate(233.927964, 302.035231)"><g><path d="M 19.925781 -12.558594 C 24.289062 -13.910156 26.167969 -17.292969 26.167969 -21.429688 L 26.167969 -21.46875 C 26.167969 -26.394531 23.347656 -30.492188 15.378906 -30.492188 L 2.066406 -30.492188 L 2.066406 0 L 7.933594 0 L 7.933594 -11.957031 L 14.097656 -11.957031 L 21.242188 0 L 27.519531 0 Z M 15.078125 -25.003906 C 18.160156 -25.003906 20.152344 -23.949219 20.152344 -20.902344 L 20.152344 -20.867188 C 20.152344 -17.671875 18.160156 -16.542969 15.078125 -16.542969 L 7.933594 -16.542969 L 7.933594 -25.003906 Z M 15.078125 -25.003906 "/></g></g></g><g fill="#ff3131" fill-opacity="1"><g transform="translate(260.54392, 302.035231)"><g><path d="M 7.96875 0 L 7.96875 -30.492188 L 2.03125 -30.492188 L 2.03125 0 Z M 7.96875 0 "/></g></g></g><g fill="#ff3131" fill-opacity="1"><g transform="translate(269.114925, 302.035231)"><g><path d="M 30.566406 0 L 19.097656 -30.492188 L 11.917969 -30.492188 L 0.527344 0 L 6.617188 0 L 9.363281 -7.746094 L 21.695312 -7.746094 L 24.4375 0 Z M 19.851562 -12.820312 L 11.167969 -12.820312 L 15.488281 -24.703125 Z M 19.851562 -12.820312 "/></g></g></g></svg>